#N canvas 494 209 1199 625 12;
#X declare -path dep;
#X obj 192 343 adc~;
#X obj 298 143 hsl 128 17 -15 15 0 0 empty empty empty -2 -8 0 10 #181818 #fcfcfc #fcfcfc 0 1;
#X msg 298 168 highvol \$1, f 11;
#X obj 458 277 hsl 128 17 -15 15 0 0 empty empty empty -2 -8 0 10 #181818 #fcfcfc #fcfcfc 0 1;
#X msg 458 302 midvol \$1, f 11;
#X obj 456 464 hsl 128 17 -15 15 0 0 empty empty empty -2 -8 0 10 #181818 #fcfcfc #fcfcfc 0 1;
#X msg 456 489 lowvol \$1, f 11;
#X msg 701 314 midfreq \$1, f 12;
#X msg 812 370 midq \$1, f 9;
#X obj 298 110 r High @hv_param -15 15 0 db;
#X obj 458 246 r Mid @hv_param -15 15 0 db;
#X obj 456 432 r Low @hv_param -15 15 0 db;
#X obj 701 273 hsl 128 17 313.3 5705.6 1 0 empty empty empty -2 -8 0 10 #000000 #fcfcfc #585858 0 1;
#N canvas 523 290 995 434 stereo_eq_pass 1;
#X obj 292 123 inlet~;
#X obj 433 123 inlet~;
#X obj 649 130 inlet;
#X obj 292 190 wstd.cmpnnts/eq_pass, f 23;
#X obj 653 195 wstd.cmpnnts/eq_pass, f 23;
#X obj 256 321 outlet~;
#X obj 559 326 outlet~;
#X obj 339 321 outlet~;
#X obj 721 332 outlet~;
#X obj 458 326 outlet~;
#X obj 818 332 outlet~;
#X connect 0 0 3 0 empty;
#X connect 1 0 4 0 empty;
#X connect 2 0 3 1 empty;
#X connect 2 0 4 1 empty;
#X connect 3 0 5 0 empty;
#X connect 3 1 9 0 empty;
#X connect 3 2 8 0 empty;
#X connect 4 0 7 0 empty;
#X connect 4 1 6 0 empty;
#X connect 4 2 10 0 empty;
#X restore 199 699 pd stereo_eq_pass;
#X obj 686 141 loadbang;
#X msg 734 179 1337, f 7;
#X msg 686 179 0, f 5;
#X obj 812 314 wstd.cmpnnts/eqmidq;
#X obj 812 342 wstd.cmpnnts/qcalc;
#X obj 701 242 r Mid_Freq @hv_param 313.3 5705.6 1337 log_hz;
#X obj 179 1499 dac~ 1 2;
#X obj 179 1399 catch~ L;
#X obj 259 1399 catch~ R;
#X obj 199 999 throw~ L;
#X obj 299 999 throw~ R;
#X obj 719 1199 throw~ L;
#X obj 819 1199 throw~ R;
#X obj 1219 1399 throw~ L;
#X obj 1319 1399 throw~ R;
#X obj 1079 110 declare -path dep;
#X obj 737 711 hsl 128 15 0 1 0 0 empty empty empty -2 8 0 10 #fcfcfc #000000 #000000 0 1;
#X obj 766 806 hsl 128 15 0 5000 0 0 empty empty empty -2 8 0 10 #fcfcfc #000000 #000000 0 1;
#X obj 784 936 hsl 128 15 0 1 0 0 empty empty empty -2 8 0 10 #fcfcfc #000000 #000000 0 1;
#X obj 704 576 hsl 128 15 0 1 0 0 empty empty empty -2 8 0 10 #fcfcfc #000000 #000000 0 1;
#X msg 701 603 mix \$1, f 8;
#X msg 733 734 feedback \$1, f 12;
#X text 865 963 // 0..1, f 6;
#X text 770 602 // 0..1 (0=dry), f 12;
#X obj 701 543 / 100;
#X obj 734 675 / 100;
#X obj 781 906 / 100;
#X msg 763 828 time \$1, f 10;
#X msg 781 964 cross \$1;
#X text 826 726 // 0..1, f 6;
#X obj 1154 825 hsl 128 15 0 1 0 0 empty empty empty -2 8 0 10 #fcfcfc #000000 #000000 0 1;
#X obj 1183 920 hsl 128 15 0 5000 0 0 empty empty empty -2 8 0 10 #fcfcfc #000000 #000000 0 1;
#X obj 1201 1050 hsl 128 15 0 1 0 0 empty empty empty -2 8 0 10 #fcfcfc #000000 #000000 0 1;
#X obj 1121 690 hsl 128 15 0 1 0 0 empty empty empty -2 8 0 10 #fcfcfc #000000 #000000 0 1;
#X msg 1118 717 mix \$1, f 8;
#X msg 1150 848 feedback \$1, f 12;
#X text 1282 1077 // 0..1, f 6;
#X text 1187 716 // 0..1 (0=dry), f 12;
#X obj 1118 657 / 100;
#X obj 1151 789 / 100;
#X obj 1198 1020 / 100;
#X msg 1180 942 time \$1, f 10;
#X msg 1198 1078 cross \$1;
#X text 1243 840 // 0..1, f 6;
#X obj 1584 1052 hsl 128 15 0 1 0 0 empty empty empty -2 8 0 10 #fcfcfc #000000 #000000 0 1;
#X obj 1613 1147 hsl 128 15 0 5000 0 0 empty empty empty -2 8 0 10 #fcfcfc #000000 #000000 0 1;
#X obj 1631 1277 hsl 128 15 0 1 0 0 empty empty empty -2 8 0 10 #fcfcfc #000000 #000000 0 1;
#X obj 1551 917 hsl 128 15 0 1 0 0 empty empty empty -2 8 0 10 #fcfcfc #000000 #000000 0 1;
#X msg 1548 944 mix \$1, f 8;
#X msg 1580 1075 feedback \$1, f 12;
#X text 1712 1304 // 0..1, f 6;
#X text 1617 943 // 0..1 (0=dry), f 12;
#X obj 1548 884 / 100;
#X obj 1581 1016 / 100;
#X obj 1628 1247 / 100;
#X msg 1610 1169 time \$1, f 10;
#X msg 1628 1305 cross \$1;
#X text 1673 1067 // 0..1, f 6;
#X obj 701 510 r High_Mix @hv_param 0 100 50;
#X obj 734 645 r High_Feedback @hv_param 0 100 25;
#X obj 781 870 r High_Cross @hv_param 0 100 20;
#X obj 1118 624 r Mid_Mix @hv_param 0 100 50;
#X obj 1151 759 r Mid_Feedback @hv_param 0 100 25, f 34;
#X obj 1548 851 r Low_Mix @hv_param 0 100 50;
#X obj 1581 986 r Low_Feedback @hv_param 0 100 25, f 33;
#X obj 1628 1211 r Low_Cross @hv_param 0 100 20;
#X obj 1198 984 r Mid_Cross @hv_param 0 100 20;
#X obj 763 770 r High_Time @hv_param 50 5000 500;
#X text 851 831 // 50..5000 ms;
#X obj 1180 884 r Mid_Time @hv_param 50 5000 500, f 33;
#X text 1268 945 // 50..5000 ms;
#X obj 1610 1111 r Low_Time @hv_param 50 5000 500, f 33;
#X text 1698 1172 // 50..5000 ms;
#X obj 199 939 wstd.cmpnnts/dlay;
#X obj 719 1139 wstd.cmpnnts/dlay;
#X obj 1219 1339 wstd.cmpnnts/dlay;
#X connect 0 0 13 0 empty;
#X connect 0 1 13 1 empty;
#X connect 1 0 2 0 empty;
#X connect 2 0 13 2 empty;
#X connect 3 0 4 0 empty;
#X connect 4 0 13 2 empty;
#X connect 5 0 6 0 empty;
#X connect 6 0 13 2 empty;
#X connect 7 0 13 2 empty;
#X connect 8 0 13 2 empty;
#X connect 9 0 1 0 empty;
#X connect 10 0 3 0 empty;
#X connect 11 0 5 0 empty;
#X connect 12 0 7 0 empty;
#X connect 12 0 17 0 empty;
#X connect 13 0 87 0 empty;
#X connect 13 1 87 1 empty;
#X connect 13 2 88 0 empty;
#X connect 13 3 88 1 empty;
#X connect 13 4 89 0 empty;
#X connect 13 5 89 1 empty;
#X connect 14 0 16 0 empty;
#X connect 14 0 15 0 empty;
#X connect 15 0 12 0 empty;
#X connect 16 0 1 0 empty;
#X connect 16 0 3 0 empty;
#X connect 16 0 5 0 empty;
#X connect 17 0 18 0 empty;
#X connect 18 0 8 0 empty;
#X connect 19 0 12 0 empty;
#X connect 21 0 20 0 empty;
#X connect 22 0 20 1 empty;
#X connect 30 0 35 0 empty;
#X connect 31 0 41 0 empty;
#X connect 32 0 42 0 empty;
#X connect 33 0 34 0 empty;
#X connect 34 0 87 2 empty;
#X connect 35 0 87 2 empty;
#X connect 38 0 33 0 empty;
#X connect 39 0 30 0 empty;
#X connect 40 0 32 0 empty;
#X connect 41 0 87 2 empty;
#X connect 42 0 87 2 empty;
#X connect 44 0 49 0 empty;
#X connect 45 0 55 0 empty;
#X connect 46 0 56 0 empty;
#X connect 47 0 48 0 empty;
#X connect 48 0 88 2 empty;
#X connect 49 0 88 2 empty;
#X connect 52 0 47 0 empty;
#X connect 53 0 44 0 empty;
#X connect 54 0 46 0 empty;
#X connect 55 0 88 2 empty;
#X connect 56 0 88 2 empty;
#X connect 58 0 63 0 empty;
#X connect 59 0 69 0 empty;
#X connect 60 0 70 0 empty;
#X connect 61 0 62 0 empty;
#X connect 62 0 89 2 empty;
#X connect 63 0 89 2 empty;
#X connect 66 0 61 0 empty;
#X connect 67 0 58 0 empty;
#X connect 68 0 60 0 empty;
#X connect 69 0 89 2 empty;
#X connect 70 0 89 2 empty;
#X connect 72 0 38 0 empty;
#X connect 73 0 39 0 empty;
#X connect 74 0 40 0 empty;
#X connect 75 0 52 0 empty;
#X connect 76 0 53 0 empty;
#X connect 77 0 66 0 empty;
#X connect 78 0 67 0 empty;
#X connect 79 0 68 0 empty;
#X connect 80 0 54 0 empty;
#X connect 81 0 31 0 empty;
#X connect 83 0 45 0 empty;
#X connect 85 0 59 0 empty;
#X connect 87 0 23 0 empty;
#X connect 87 1 24 0 empty;
#X connect 88 0 25 0 empty;
#X connect 88 1 26 0 empty;
#X connect 89 0 27 0 empty;
#X connect 89 1 28 0 empty;
